<svg width="50" height="50" viewBox="0 0 50 50" fill="none" xmlns="http://www.w3.org/2000/svg">
<circle cx="25" cy="25" r="25" fill="black"/>
<path d="M16.3599 34.597H10.7686C9.99076 34.597 9.51072 33.748 9.91167 33.0815L24.1431 9.42443C24.5317 8.77841 25.4683 8.77841 25.8569 9.42443L40.0883 33.0815C40.4893 33.748 40.0092 34.597 39.2314 34.597H34.1391C33.9034 34.597 33.6753 34.5138 33.495 34.362L25.664 27.768C25.2831 27.4473 24.7242 27.4557 24.3531 27.7877L17.0267 34.3423C16.8433 34.5063 16.6059 34.597 16.3599 34.597Z" fill="white"/>
<path d="M21.469 34.0263L24.3096 31.3155C24.696 30.9468 25.304 30.9468 25.6904 31.3155L28.531 34.0263C28.8781 34.3575 28.941 34.8885 28.681 35.2917L25.8404 39.6968C25.4466 40.3075 24.5534 40.3075 24.1596 39.6968L21.319 35.2917C21.059 34.8885 21.1219 34.3575 21.469 34.0263Z" fill="white"/>
</svg>
